<svg id="linkedin" xmlns="http://www.w3.org/2000/svg" width="16" height="16" viewBox="0 0 16 16">
  <path id="Path_198" data-name="Path 198" d="M4.715,2.13A1.794,1.794,0,0,1,6,2.681,1.772,1.772,0,0,1,6.539,4,1.772,1.772,0,0,1,6,5.294a1.686,1.686,0,0,1-1.27.533,1.794,1.794,0,0,1-1.306-.551A1.772,1.772,0,0,1,2.89,3.943,1.783,1.783,0,0,1,4.679,2.166ZM3.284,6.806H6.145V18.13H3.284Z" transform="translate(-2.889 -2.13)" fill="#121212"/>
  <path id="Path_199" data-name="Path 199" d="M6.16,4.885H9.022V6.04A6.962,6.962,0,0,1,10.81,4.9a4.171,4.171,0,0,1,1.61-.3A3.947,3.947,0,0,1,15.3,5.774a4.02,4.02,0,0,1,1,2.951v7.484H13.457v-4.96a11.9,11.9,0,0,0-.2-2.684,1.776,1.776,0,0,0-.626-1.013A1.8,1.8,0,0,0,11.507,7.2a2.189,2.189,0,0,0-1.5.569,3.159,3.159,0,0,0-.858,1.6,14.227,14.227,0,0,0-.125,2.311v4.533H6.16Z" transform="translate(-0.311 -0.209)" fill="#121212"/>
</svg>
