<svg xmlns="http://www.w3.org/2000/svg" width="104.14" height="115.34" viewBox="0 0 104.14 115.34">
  <g id="logo-large-stroke" transform="translate(0.01)">
    <path id="Path_215" data-name="Path 215" d="M352.67,338.52H259.48a5.48,5.48,0,0,0-3.88,1.61A5.41,5.41,0,0,0,254,344v82.41a8,8,0,0,0,4.77,7.31l45.1,19.67a5.33,5.33,0,0,0,2.2.47,5.479,5.479,0,0,0,2.19-.46l45.11-19.67a8,8,0,0,0,4.77-7.3V344a5.49,5.49,0,0,0-5.47-5.48Zm4.48,87.91a7,7,0,0,1-4.18,6.38l-45.1,19.67a4.389,4.389,0,0,1-1.79.38,4.44,4.44,0,0,1-1.8-.38l-45.1-19.68a7,7,0,0,1-4.17-6.39V344a4.47,4.47,0,0,1,4.47-4.48h93.19a4.49,4.49,0,0,1,4.48,4.48Z" transform="translate(-254.01 -338.52)" fill="#131313"/>
    <path id="Path_216" data-name="Path 216" d="M352.67,339.52H259.48A4.47,4.47,0,0,0,255,344v82.41a7,7,0,0,0,4.17,6.39l45.1,19.68a4.44,4.44,0,0,0,1.8.38,4.39,4.39,0,0,0,1.79-.38L353,432.81a7,7,0,0,0,4.18-6.38V344a4.49,4.49,0,0,0-4.51-4.48Zm3.48,86.91a6,6,0,0,1-3.58,5.47l-45.1,19.66a3.45,3.45,0,0,1-2.78,0l-45.11-19.68a6,6,0,0,1-3.57-5.47V344a3.47,3.47,0,0,1,3.47-3.48h93.2a3.48,3.48,0,0,1,3.47,3.48Z" transform="translate(-254.01 -338.52)" fill="#ffd531"/>
    <path id="Path_217" data-name="Path 217" d="M352.68,340.52h-93.2A3.47,3.47,0,0,0,256,344v82.41a6,6,0,0,0,3.57,5.47l45.11,19.68a3.45,3.45,0,0,0,2.78,0l45.1-19.66a6,6,0,0,0,3.58-5.47V344a3.48,3.48,0,0,0-3.46-3.48Z" transform="translate(-254.01 -338.52)" fill="#131313"/>
    <path id="Path_206" data-name="Path 206" d="M309.32,435l5.25-3.8h-6.49l-2-6.19-2,6.19h-6.5l5.25,3.8-2,6.17,5.25-3.82,5.25,3.82Zm24.46-61.07v6.66h3.59v-6.74l6.77-10.28h-4.06L335.6,371l-4.49-7.38H327Zm-26.54,6.68h3.51v-6.26c0-.93-.05-3.09-.05-3.74.25.63.8,1.84,1.26,2.82L315.6,381l3.64-7.57c.46-1,1-2.19,1.25-2.82v10H324v-17h-3.5l-3.61,7.72c-.47,1-1,2.22-1.22,2.84-.23-.61-.76-1.89-1.22-2.84l-3.75-7.72h-3.46Zm-19.13,0h3.58v-6.14h3.62l3.2,6.14h4.12L299.2,374a4.89,4.89,0,0,0,3.43-5c0-3.63-2.8-5.4-6.18-5.4h-8.36v17Zm10.83-11.56c0,1.48-.9,2.22-2.57,2.22h-4.69v-4.38h4.69C298,366.88,298.94,367.51,298.94,369.05Zm-31.46,11.56h3.86l1.4-3.79h6.55l1.4,3.79h3.94l-6.8-17h-3.49Zm10.58-7H274l2.05-5.75Zm67.16-13.73H266.94v-1.55h78.28Zm0,58.85H266.94v1.55h78.28Z" transform="translate(-254.01 -338.52)" fill="#ffd531"/>
    <path id="Path_207" data-name="Path 207" d="M336.88,414.65H332V398.36h5.1c4.66,0,8.11,2.19,8.11,8.15C345.21,412.23,341.07,414.65,336.88,414.65Zm.12-13.14h-1.72v10h1.6c3.41,0,5-2,5-5C341.86,403.18,340.45,401.51,337,401.51Zm-12,13.14-2.92-5.87h-3.27v5.87h-3.26V398.36h7.6c3.07,0,5.6,1.69,5.6,5.17a4.66,4.66,0,0,1-3.12,4.8l3.12,6.34H325Zm-1.94-13.14h-4.25v4.2h4.25c1.51,0,2.33-.7,2.33-2.11s-.86-2.09-2.31-2.09Zm-13.39,13.14L308.42,411h-6l-1.29,3.63h-3.48l6.24-16.29h3.17l6.2,16.29ZM306.26,405c-.32-1-.65-1.92-.81-2.53-.15.61-.5,1.58-.82,2.53l-1.06,3h3.73Zm-16.56,9.9c-3.93,0-6.58-2.65-6.58-7.41v-9.13h3.26v9.1c0,2.61,1.26,4.26,3.32,4.26s3.36-1.6,3.36-4.21v-9.15h3.26v9.1c0,4.72-2.47,7.44-6.61,7.44Zm-15.71,0c-4.26,0-7.12-3.26-7.12-8.4,0-4.95,3-8.4,7.24-8.4a6.06,6.06,0,0,1,6.17,4.07l-3.09,1.29a3.17,3.17,0,0,0-3.13-2.11c-2.43,0-3.83,2.14-3.83,5.17s1.41,5.22,3.86,5.22c2.24,0,3-1,3.19-2.47H274.7v-3h5.84v2.14c0,4.17-2.78,6.54-6.55,6.54Zm63.06-30.6h2.17v8.29h5.45v2h-7.62Zm-7.89,0h2.11l4.13,10.33H333l-.86-2.3h-4l-.86,2.3H325Zm1,2.58-1.25,3.48h2.49Zm-15.74-2.58h2.08l3.86,5.47c.26.39.62.9.76,1.17v-6.62h2.14v10.31H321.3l-4-5.64c-.27-.38-.63-.9-.77-1.16v6.8h-2.15Zm-6.66-.17c3,0,4.72,2.19,4.72,5.33s-1.75,5.33-4.72,5.33-4.72-2.19-4.72-5.33,1.75-5.33,4.72-5.33Zm0,2.05c-1.76,0-2.49,1.43-2.49,3.28s.73,3.28,2.49,3.28,2.48-1.43,2.48-3.28-.73-3.28-2.48-3.28Zm-9.13-1.88h2.17v10.33h-2.17Zm-10.53,0h8.41v2H293.4v8.29h-2.17V386.3h-3.12Zm-5.88,0h2.12l4.13,10.33h-2.39l-.86-2.3h-4l-.86,2.3h-2.33Zm1,2.58L282,390.36h2.49Zm-15.76-2.58h2.08l3.85,5.47c.27.39.62.9.76,1.17v-6.62h2.15v10.31h-2l-4-5.64c-.26-.38-.62-.9-.76-1.16v6.8H267.4Z" transform="translate(-254.01 -338.52)" fill="#fff"/>
    <path id="Path_205" data-name="Path 205" d="M284.27,353.8l-2.61-3.89c-.17-.26-.4-.62-.5-.81v4.69h-1.4v-7.1h1.36l2.52,3.75c.17.27.4.63.5.81V346.7h1.4v7.11Zm3.06,0v-7.11h4.94v1.4h-3.53v1.22h2.05v1.38h-2.05v1.73h3.67v1.4h-5.08Zm12.5,0h-1.4l-.87-3.67c-.11-.42-.2-1-.25-1.22a10.087,10.087,0,0,1-.23,1.22l-.9,3.67h-1.33l-1.49-7.11h1.49l.62,3.46c.06.34.14.87.17,1.16a11.59,11.59,0,0,1,.25-1.16l.84-3.46H298l.84,3.46c.08.34.18.87.25,1.16a8.328,8.328,0,0,1,.17-1.16l.62-3.46h1.46ZM309,351v2.81h-1.4V351l-2.69-4.33h1.63l1,1.69c.25.42.64,1.14.78,1.4.14-.26.51-.94.78-1.4l1-1.69h1.61Zm6.17,2.94c-1.86,0-3.13-1.37-3.13-3.66s1.28-3.69,3.15-3.69,3.12,1.37,3.12,3.67-1.31,3.65-3.12,3.65Zm0-5.93c-1,0-1.66.81-1.66,2.25s.69,2.26,1.69,2.26,1.66-.8,1.66-2.25-.7-2.27-1.69-2.27Zm8.66,5.82-1.27-2.56h-1.43v2.56H319.7v-7.11H323a2.2,2.2,0,0,1,2.44,1.94,1.616,1.616,0,0,1,0,.31,2,2,0,0,1-1.36,2.1l1.36,2.76ZM323,348.1h-1.87v1.83H323c.67,0,1-.31,1-.93s-.37-.93-1-.93Zm8.42,5.73-1.93-3.43-1.13,1.33v2.1h-1.43v-7.11h1.42v3.14c.11-.17.37-.48.56-.72l2-2.42h1.72l-2.08,2.46,2.61,4.66h-1.73Z" transform="translate(-254.01 -338.52)" fill="#fff"/>
  </g>
</svg>
