<svg xmlns="http://www.w3.org/2000/svg" width="160" height="160" viewBox="0 0 160 160">
  <g id="Group_9" data-name="Group 9" transform="translate(678 -416)">
    <g id="Group_8" data-name="Group 8" transform="translate(-1505 684)">
      <g id="Path_211" data-name="Path 211" transform="translate(827 -268)" fill="rgba(255,255,255,0)">
        <path d="M 80 152.5 C 40.02336120605469 152.5 7.5 119.9766387939453 7.5 80 C 7.5 55.60747146606445 19.72297286987305 32.95061111450195 40.19641494750977 19.3928337097168 C 51.94480514526367 11.61244487762451 65.70861053466797 7.5 80 7.5 C 119.9766387939453 7.5 152.5 40.02336120605469 152.5 80 C 152.5 119.9766387939453 119.9766387939453 152.5 80 152.5 Z" stroke="none"/>
        <path d="M 80 15 C 67.18599700927734 15 54.85414123535156 18.68124389648438 44.33735656738281 25.64599609375 C 25.96725463867188 37.81092834472656 15 58.13018035888672 15 80 C 15 115.8411102294922 44.15888977050781 145 80 145 C 115.8411102294922 145 145 115.8411102294922 145 80 C 145 44.15888977050781 115.8411102294922 15 80 15 M 80 0 C 124.1827850341797 0 160 35.81721496582031 160 80 C 160 124.1827850341797 124.1827850341797 160 80 160 C 35.81721496582031 160 0 124.1827850341797 0 80 C 0 52.12068176269531 14.26100158691406 27.57217407226562 36.05546569824219 13.13960266113281 C 48.53218078613281 4.87689208984375 63.69657135009766 0 80 0 Z" stroke="none" fill="#ffd530"/>
      </g>
      <path id="Layer-2" d="M83.2,55.13,42,84.26V26Z" transform="translate(852.464 -243.13)" fill="#ffd530" stroke="#ffd530" stroke-linecap="round" stroke-linejoin="round" stroke-width="15" fill-rule="evenodd"/>
    </g>
  </g>
</svg>
