<svg xmlns="http://www.w3.org/2000/svg" width="153.773" height="185.63" viewBox="0 0 153.773 185.63">
  <g id="Group_11" data-name="Group 11" transform="translate(1184 -438.37)">
    <path id="Layer-2" d="M83.2,55.13,42,84.26V26l14.124,9.986Z" transform="translate(-1135.536 419.87)" fill="#ffd530" stroke="#ffd530" stroke-linecap="round" stroke-linejoin="round" stroke-width="15" fill-rule="evenodd"/>
    <path id="Subtraction_3" data-name="Subtraction 3" d="M80,160a79.617,79.617,0,0,1-44.729-13.663,80.241,80.241,0,0,1-28.985-35.2,79.891,79.891,0,0,1,7.376-75.869A80.24,80.24,0,0,1,48.86,6.286a79.889,79.889,0,0,1,72.046,4.948A50,50,0,0,0,98.471,22.908,60,60,0,1,0,80,140a60.42,60.42,0,0,0,51.355-29h22.417l-.007.018-.052.123A79.932,79.932,0,0,1,80,160Z" transform="translate(-1184 464)" fill="#ffd530"/>
  </g>
</svg>
